<svg xmlns="http://www.w3.org/2000/svg" version="1.1" xmlns:xlink="http://www.w3.org/1999/xlink" xmlns:svgjs="http://svgjs.dev/svgjs" width="1201.71" height="768.53"><svg id="SvgjsSvg1121" xmlns="http://www.w3.org/2000/svg" viewBox="0 0 1201.71 768.53">
  <defs>
    <style>
      .cls-1 {
        fill: #1d1d1b;
      }
    </style>
  </defs>
  <path class="cls-1" d="M101.06,90.93H0V0h502.11v90.93H198.36v677.6h-97.29V90.93Z"></path>
  <path class="cls-1" d="M246.11,135.81h97.29v545.56h158.71l-8.5,87.15h-247.5V135.81Z"></path>
  <path class="cls-1" d="M558.52,0h135.1c134.13,0,166.24,69.14,166.24,186.6v379.25c0,96.63-16.07,202.68-166.24,202.68h-135.1V0ZM655.82,685.16h31.19c64.22,0,73.68-40.72,73.68-106.04V179.04c0-57.8-9.46-94.74-73.68-94.74h-31.19v600.86Z"></path>
  <path class="cls-1" d="M913.6,0h135.1c96.33,0,153.02,38.83,153.02,152.51v23.68c0,97.56-40.61,122.16-64.22,132.61,35.88,17.04,57.61,43.57,57.61,129.72,0,53.06-.96,292.14,5.65,330.01h-94.45c-7.54-37.87-6.61-277.87-6.61-324.3,0-76.74-9.46-94.71-66.11-94.71h-22.69v419.01h-97.29V0ZM1010.9,269h22.69c50.99,0,69.87-18.93,69.87-88.07v-21.79c0-49.24-9.42-78.63-65.14-78.63h-27.42v188.49Z"></path>
  <ellipse class="cls-1" cx="451.83" cy="186.23" rx="50.28" ry="50.42"></ellipse>
  <ellipse class="cls-1" cx="451.83" cy="581.22" rx="50.28" ry="50.42"></ellipse>
</svg><style>@media (prefers-color-scheme: light) { :root { filter: contrast(1) brightness(0.1); } }
@media (prefers-color-scheme: dark) { :root { filter: none; } }
</style></svg>